<svg width="25" height="24" viewBox="0 0 25 24" fill="none" xmlns="http://www.w3.org/2000/svg">
<path d="M18.6582 8C18.6582 6.4087 18.0261 4.88258 16.9008 3.75736C15.7756 2.63214 14.2495 2 12.6582 2C11.0669 2 9.54078 2.63214 8.41556 3.75736C7.29034 4.88258 6.6582 6.4087 6.6582 8C6.6582 15 3.6582 17 3.6582 17H21.6582C21.6582 17 18.6582 15 18.6582 8Z" stroke="white" stroke-width="2" stroke-linecap="round" stroke-linejoin="round"/>
<path d="M14.3882 21C14.2124 21.3031 13.9601 21.5547 13.6564 21.7295C13.3528 21.9044 13.0086 21.9965 12.6582 21.9965C12.3078 21.9965 11.9636 21.9044 11.66 21.7295C11.3564 21.5547 11.104 21.3031 10.9282 21" stroke="white" stroke-width="2" stroke-linecap="round" stroke-linejoin="round"/>
</svg>
