<svg width="21" height="20" viewBox="0 0 21 20" fill="none" xmlns="http://www.w3.org/2000/svg">
<path d="M19.6582 9.50003C19.6616 10.8199 19.3533 12.1219 18.7582 13.3C18.0526 14.7118 16.968 15.8992 15.6257 16.7293C14.2834 17.5594 12.7364 17.9994 11.1582 18C9.83834 18.0035 8.53632 17.6951 7.3582 17.1L1.6582 19L3.5582 13.3C2.96313 12.1219 2.65476 10.8199 2.6582 9.50003C2.65881 7.92179 3.09881 6.37488 3.92892 5.03258C4.75903 3.69028 5.94646 2.6056 7.3582 1.90003C8.53632 1.30496 9.83834 0.996587 11.1582 1.00003H11.6582C13.7426 1.11502 15.7112 1.99479 17.1873 3.47089C18.6634 4.94699 19.5432 6.91568 19.6582 9.00003V9.50003Z" stroke="white" strokeWidth="2" strokeLinecap="round" strokeLinejoin="round"/>
</svg>
