<svg width="16" height="14" viewBox="0 0 16 14" fill="none" xmlns="http://www.w3.org/2000/svg">
<path d="M1.14473 4.19129L1.14516 4.19087L4.18978 1.14625L4.1974 1.13863L4.20602 1.13218C4.26093 1.09113 4.30965 1.0424 4.3507 0.987502L4.35686 0.97927L4.36408 0.971955C4.46589 0.86881 4.58614 0.853972 4.67689 0.853532C4.70288 0.853406 4.73495 0.854745 4.76149 0.855853C4.77458 0.8564 4.78633 0.856891 4.79534 0.857121C4.82994 0.858007 4.85519 0.856894 4.87622 0.852784L4.89047 0.85H4.90499H11.5823H11.5966L11.6107 0.852725C11.632 0.856841 11.6574 0.857942 11.6921 0.857081C11.7011 0.856857 11.7128 0.856383 11.7258 0.855855C11.7523 0.854774 11.7844 0.85347 11.8106 0.853632C11.9013 0.854192 12.021 0.869162 12.1228 0.971609L12.1301 0.978963L12.1364 0.987253C12.1776 1.04223 12.2265 1.09108 12.2815 1.13237L12.29 1.13874L12.2975 1.14625L15.3421 4.19087L15.3421 4.19087L15.3431 4.19194C15.5163 4.36861 15.6194 4.60219 15.6333 4.84921C15.6471 5.09622 15.5707 5.33985 15.4183 5.53476L15.4187 5.53501L15.4112 5.54323L9.04814 12.5472C8.95523 12.6671 8.83666 12.7648 8.70108 12.833C8.56353 12.9022 8.41207 12.9393 8.25812 12.9414C8.10416 12.9436 7.95172 12.9107 7.8123 12.8454C7.67422 12.7807 7.55246 12.6858 7.45603 12.5677L1.0602 5.5242L1.05528 5.51878L1.05091 5.51291C0.905782 5.31785 0.835436 5.07721 0.852653 4.8347C0.86987 4.59218 0.973507 4.36389 1.14473 4.19129ZM7.82902 5.41547L7.82917 5.26405H1.94106L7.82937 11.7487C7.82985 11.5658 7.83017 11.3252 7.83037 11.0443C7.83084 10.3869 7.83066 9.50861 7.83029 8.62978L7.82913 6.21222C7.829 5.88251 7.82895 5.60774 7.82902 5.41547ZM7.24409 4.43594L4.65743 1.8495L2.071 4.43594H7.24409ZM14.4163 4.4362L11.8298 1.84951L9.24313 4.4362H14.4163ZM8.65755 11.75C8.66273 11.7443 8.66799 11.7386 8.67331 11.7327C8.84802 11.5412 9.09712 11.2673 9.39585 10.9385C9.99331 10.281 10.7891 9.40397 11.585 8.52668C11.7689 8.32391 11.9529 8.12113 12.1344 7.92104C12.7383 7.25544 13.3151 6.61963 13.7747 6.11325C14.0736 5.78395 14.3231 5.50934 14.4982 5.31685C14.5148 5.29859 14.5307 5.28107 14.546 5.26431H8.65755V11.75ZM10.8303 1.67811H5.65693L8.24363 4.2648L10.8303 1.67811Z" fill="white" stroke="white" stroke-width="0.3"/>
</svg>
