<svg width="25" height="24" viewBox="0 0 25 24" fill="none" xmlns="http://www.w3.org/2000/svg">
<path d="M19.589 5.64161C18.3143 5.05671 16.9474 4.62578 15.5181 4.37897C15.4921 4.3742 15.4661 4.38611 15.4527 4.40991C15.2769 4.72259 15.0821 5.13051 14.9458 5.45113C13.4085 5.22099 11.8792 5.22099 10.3735 5.45113C10.2371 5.12338 10.0353 4.72259 9.85868 4.40991C9.84527 4.3869 9.81927 4.375 9.79325 4.37897C8.36479 4.62499 6.99784 5.05592 5.72232 5.64161C5.71127 5.64637 5.70181 5.65431 5.69553 5.66462C3.1027 9.53826 2.39241 13.3167 2.74085 17.0483C2.74243 17.0665 2.75268 17.084 2.76687 17.0951C4.47754 18.3514 6.13463 19.114 7.76094 19.6196C7.78696 19.6275 7.81454 19.618 7.8311 19.5965C8.21581 19.0712 8.55874 18.5172 8.85277 17.9347C8.87012 17.9006 8.85356 17.8601 8.81809 17.8466C8.27415 17.6403 7.7562 17.3887 7.25798 17.103C7.21857 17.08 7.21542 17.0236 7.25167 16.9966C7.35651 16.9181 7.46139 16.8363 7.5615 16.7538C7.57961 16.7387 7.60485 16.7356 7.62615 16.7451C10.8993 18.2395 14.4428 18.2395 17.6773 16.7451C17.6986 16.7348 17.7239 16.7379 17.7428 16.753C17.8429 16.8356 17.9478 16.9181 18.0534 16.9966C18.0896 17.0236 18.0873 17.08 18.0479 17.103C17.5496 17.3943 17.0317 17.6403 16.487 17.8458C16.4515 17.8593 16.4357 17.9006 16.4531 17.9347C16.7534 18.5164 17.0963 19.0704 17.474 19.5957C17.4897 19.618 17.5181 19.6275 17.5441 19.6196C19.1783 19.114 20.8354 18.3514 22.5461 17.0951C22.561 17.084 22.5705 17.0673 22.5721 17.049C22.9891 12.7349 21.8736 8.98749 19.615 5.66541C19.6095 5.65431 19.6001 5.64637 19.589 5.64161ZM9.34156 14.7761C8.35612 14.7761 7.54415 13.8714 7.54415 12.7603C7.54415 11.6493 8.34037 10.7446 9.34156 10.7446C10.3506 10.7446 11.1547 11.6572 11.1389 12.7603C11.1389 13.8714 10.3427 14.7761 9.34156 14.7761ZM15.9872 14.7761C15.0018 14.7761 14.1898 13.8714 14.1898 12.7603C14.1898 11.6493 14.986 10.7446 15.9872 10.7446C16.9962 10.7446 17.8003 11.6572 17.7846 12.7603C17.7846 13.8714 16.9962 14.7761 15.9872 14.7761Z" fill="white"/>
</svg>
