<svg width="14" height="17" viewBox="0 0 14 17" fill="none" xmlns="http://www.w3.org/2000/svg">
<path d="M12.9405 0.919167C13.0073 0.963853 13.0621 1.0243 13.1 1.09517C13.1379 1.16604 13.1578 1.24515 13.1579 1.32552V8.66927C13.1579 8.76704 13.1286 8.86257 13.0738 8.94355C13.019 9.02452 12.9412 9.08723 12.8504 9.1236L12.6683 8.66927L12.8504 9.1236L12.8475 9.12458L12.8416 9.12752L12.8191 9.13633C12.6904 9.1875 12.5608 9.23646 12.4304 9.28321C12.1719 9.37623 11.8125 9.50156 11.4052 9.62592C10.6062 9.87267 9.56531 10.138 8.75163 10.138C7.92227 10.138 7.23588 9.86385 6.63859 9.62396L6.61117 9.61417C5.99038 9.36448 5.46163 9.15885 4.83496 9.15885C4.14954 9.15885 3.23109 9.38406 2.44873 9.62592C2.09844 9.73509 1.75135 9.85427 1.40788 9.98331V16.013C1.40788 16.1429 1.3563 16.2674 1.26448 16.3592C1.17267 16.451 1.04814 16.5026 0.918294 16.5026C0.788449 16.5026 0.663921 16.451 0.572107 16.3592C0.480292 16.2674 0.428711 16.1429 0.428711 16.013V1.32552C0.428711 1.19568 0.480292 1.07115 0.572107 0.979333C0.663921 0.887518 0.788449 0.835938 0.918294 0.835938C1.04814 0.835938 1.17267 0.887518 1.26448 0.979333C1.3563 1.07115 1.40788 1.19568 1.40788 1.32552V1.60165C1.62917 1.52429 1.89354 1.43519 2.18142 1.34706C2.98042 1.10227 4.02225 0.835938 4.83496 0.835938C5.65746 0.835938 6.32721 1.10717 6.91177 1.34412L6.95388 1.36175C7.56292 1.60752 8.09363 1.8151 8.75163 1.8151C9.43704 1.8151 10.3555 1.5899 11.1379 1.34804C11.5837 1.20882 12.0243 1.05335 12.4588 0.881958L12.4774 0.875104L12.4813 0.873146H12.4823L12.9405 0.919167ZM12.1787 2.0315C11.9633 2.10787 11.7087 2.19502 11.4287 2.28119C10.6355 2.52794 9.59567 2.79329 8.75163 2.79329C7.88409 2.79329 7.19279 2.51325 6.59452 2.27042L6.58669 2.26748C5.97275 2.02073 5.46065 1.8151 4.83496 1.8151C4.1799 1.8151 3.26242 2.03933 2.47027 2.28315C2.11298 2.39338 1.75872 2.51321 1.40788 2.6425V8.94148C1.62329 8.8651 1.87788 8.77796 2.15792 8.69179C2.95104 8.44406 3.99092 8.17969 4.83496 8.17969C5.66431 8.17969 6.35071 8.45385 6.948 8.69375L6.97542 8.70354C7.59621 8.95323 8.12496 9.15885 8.75163 9.15885C9.40571 9.15885 10.3242 8.93462 11.1163 8.69081C11.4736 8.58056 11.8279 8.46074 12.1787 8.33146V2.03248V2.0315Z" fill="white"/>
</svg>
