<svg width="15" height="14" viewBox="0 0 15 14" fill="none" xmlns="http://www.w3.org/2000/svg">
<path fillRule="evenodd" clipRule="evenodd" d="M13.1321 0.466667C13.1321 0.342899 13.083 0.2242 12.9954 0.136683C12.9079 0.0491665 12.7892 0 12.6655 0H2.3988C2.27503 0 2.15633 0.0491665 2.06881 0.136683C1.9813 0.2242 1.93213 0.342899 1.93213 0.466667V0.933333H13.1321V0.466667ZM14.056 3.73291H0.877333C0.64465 3.73291 0.421497 3.82534 0.256965 3.98988C0.092433 4.15441 0 4.37756 0 4.61024V13.1222C0 13.3549 0.092433 13.5781 0.256965 13.7426C0.421497 13.9071 0.64465 13.9996 0.877333 13.9996H14.056C14.2887 13.9996 14.5118 13.9071 14.6764 13.7426C14.8409 13.5781 14.9333 13.3549 14.9333 13.1222V4.61024C14.9333 4.37756 14.8409 4.15441 14.6764 3.98988C14.5118 3.82534 14.2887 3.73291 14.056 3.73291ZM14 13.0662H0.933333V4.66624H14V13.0662ZM3.06138 8.14326C3.33827 8.14326 3.60895 8.06115 3.83918 7.90732C4.0694 7.75349 4.24885 7.53484 4.35481 7.27902C4.46077 7.0232 4.4885 6.74171 4.43448 6.47014C4.38046 6.19856 4.24712 5.94911 4.05133 5.75331C3.85553 5.55752 3.60608 5.42418 3.3345 5.37016C3.06293 5.31614 2.78144 5.34387 2.52562 5.44983C2.2698 5.55579 2.05115 5.73524 1.89732 5.96546C1.74349 6.19569 1.66138 6.46637 1.66138 6.74326C1.66138 7.11457 1.80888 7.47066 2.07143 7.73321C2.33398 7.99576 2.69007 8.14326 3.06138 8.14326ZM3.06138 5.9966C3.20979 5.99288 3.35595 6.0335 3.48116 6.11326C3.60638 6.19301 3.70499 6.30829 3.76437 6.44435C3.82376 6.58042 3.84123 6.7311 3.81457 6.87715C3.7879 7.0232 3.7183 7.15798 3.61466 7.26428C3.51102 7.37058 3.37804 7.44357 3.23271 7.47392C3.08739 7.50428 2.93631 7.49062 2.79879 7.4347C2.66126 7.37877 2.54353 7.28312 2.46063 7.15996C2.37773 7.0368 2.33342 6.89172 2.33338 6.74326C2.33332 6.54843 2.40942 6.36128 2.54543 6.22178C2.68145 6.08228 2.8666 6.00147 3.06138 5.9966ZM5.55359 9.33301L2.75359 12.133H1.82959L5.30626 8.63301C5.36831 8.57145 5.45218 8.53691 5.53959 8.53691C5.627 8.53691 5.71087 8.57145 5.77292 8.63301L7.48559 10.341L9.89359 7.93301C9.95565 7.87145 10.0395 7.83691 10.1269 7.83691C10.2143 7.83691 10.2982 7.87145 10.3603 7.93301L13.0669 10.6257V11.559L10.1363 8.65168L6.65492 12.133H5.72159L7.03759 10.817L5.55359 9.33301ZM13.9192 2.00338C14.0068 2.0909 14.0559 2.2096 14.0559 2.33337V2.80003H0.989258V2.33337C0.989258 2.2096 1.03842 2.0909 1.12594 2.00338C1.21346 1.91587 1.33216 1.8667 1.45592 1.8667H13.5893C13.713 1.8667 13.8317 1.91587 13.9192 2.00338Z" fill="white"/>
</svg>
