<svg width="16" height="14" viewBox="0 0 16 14" fill="none" xmlns="http://www.w3.org/2000/svg">
<path d="M0 2.8125C0 2.06658 0.296316 1.35121 0.823762 0.823762C1.35121 0.296316 2.06658 0 2.8125 0H12.9375C13.6834 0 14.3988 0.296316 14.9262 0.823762C15.4537 1.35121 15.75 2.06658 15.75 2.8125V10.6875C15.75 11.4334 15.4537 12.1488 14.9262 12.6762C14.3988 13.2037 13.6834 13.5 12.9375 13.5H2.8125C2.06658 13.5 1.35121 13.2037 0.823762 12.6762C0.296316 12.1488 0 11.4334 0 10.6875V2.8125ZM4.5585 5.29425C5.09963 5.238 5.51813 5.33475 5.66775 5.41012C5.73406 5.44588 5.80687 5.46795 5.88187 5.47503C5.95686 5.48211 6.03252 5.47406 6.10435 5.45134C6.17617 5.42863 6.2427 5.39172 6.29999 5.3428C6.35728 5.29389 6.40416 5.23396 6.43785 5.16658C6.47154 5.0992 6.49135 5.02574 6.49611 4.95056C6.50087 4.87538 6.49048 4.80001 6.46556 4.72892C6.44063 4.65783 6.40168 4.59247 6.35102 4.53672C6.30036 4.48097 6.23901 4.43597 6.17063 4.40438C5.77575 4.20638 5.12663 4.104 4.4415 4.176C3.3615 4.2885 2.25 5.22675 2.25 6.76012C2.25 8.31825 3.43575 9.34762 4.8375 9.34762C5.49 9.34762 6.075 9.0405 6.40912 8.7255C6.70388 8.4465 6.75 8.07525 6.75 7.84462V6.76012C6.75 6.61094 6.69074 6.46787 6.58525 6.36238C6.47976 6.25689 6.33668 6.19762 6.1875 6.19762H5.27962C5.13044 6.19762 4.98737 6.25689 4.88188 6.36238C4.77639 6.46787 4.71712 6.61094 4.71712 6.76012C4.71712 6.90931 4.77639 7.05238 4.88188 7.15787C4.98737 7.26336 5.13044 7.32262 5.27962 7.32262H5.625V7.8435C5.62505 7.87064 5.62279 7.89774 5.61825 7.9245C5.39907 8.10893 5.12385 8.21362 4.8375 8.2215C4.01513 8.2215 3.375 7.6545 3.375 6.759C3.375 5.83988 4.01288 5.35162 4.5585 5.29425ZM9 4.73625C9 4.58707 8.94074 4.44399 8.83525 4.3385C8.72976 4.23301 8.58668 4.17375 8.4375 4.17375C8.28832 4.17375 8.14524 4.23301 8.03975 4.3385C7.93426 4.44399 7.875 4.58707 7.875 4.73625V8.78625C7.875 8.93543 7.93426 9.07851 8.03975 9.184C8.14524 9.28949 8.28832 9.34875 8.4375 9.34875C8.58668 9.34875 8.72976 9.28949 8.83525 9.184C8.94074 9.07851 9 8.93543 9 8.78625V4.73625ZM10.6875 4.17375C10.5383 4.17375 10.3952 4.23301 10.2898 4.3385C10.1843 4.44399 10.125 4.58707 10.125 4.73625V8.78625C10.125 8.93543 10.1843 9.07851 10.2898 9.184C10.3952 9.28949 10.5383 9.34875 10.6875 9.34875C10.8367 9.34875 10.9798 9.28949 11.0852 9.184C11.1907 9.07851 11.25 8.93543 11.25 8.78625V7.31813L12.3784 7.31137C12.5276 7.31048 12.6703 7.25036 12.7751 7.14424C12.88 7.03811 12.9384 6.89468 12.9375 6.7455C12.9366 6.59632 12.8765 6.4536 12.7704 6.34874C12.6642 6.24388 12.5208 6.18548 12.3716 6.18638L11.25 6.19425V5.29763H12.9375C13.0867 5.29763 13.2298 5.23836 13.3352 5.13287C13.4407 5.02738 13.5 4.88431 13.5 4.73513C13.5 4.58594 13.4407 4.44287 13.3352 4.33738C13.2298 4.23189 13.0867 4.17263 12.9375 4.17263L10.6875 4.17375Z" fill="white"/>
</svg>
