<svg width="25" height="24" viewBox="0 0 25 24" fill="none" xmlns="http://www.w3.org/2000/svg">
<path fillRule="evenodd" clipRule="evenodd" d="M12.6582 3C10.2138 3 9.9078 3.0102 8.9478 3.054C7.9896 3.0978 7.335 3.2502 6.7626 3.4728C6.1626 3.6984 5.6184 4.0524 5.1684 4.5108C4.71074 4.96028 4.35652 5.5041 4.1304 6.1044C3.909 6.6768 3.756 7.332 3.7122 8.2902C3.669 9.2496 3.6582 9.555 3.6582 12C3.6582 14.445 3.6684 14.7504 3.7122 15.7104C3.756 16.6686 3.9084 17.3232 4.131 17.8956C4.3566 18.4956 4.7106 19.0398 5.169 19.4898C5.6185 19.9475 6.16231 20.3017 6.7626 20.5278C7.335 20.7498 7.9896 20.9022 8.9478 20.946C9.9078 20.9898 10.2138 21 12.6582 21C15.1026 21 15.4086 20.9898 16.3686 20.946C17.3268 20.9022 17.9814 20.7498 18.5538 20.5272C19.1538 20.3016 19.698 19.9476 20.148 19.4892C20.6057 19.0397 20.9599 18.4959 21.186 17.8956C21.408 17.3232 21.5604 16.6686 21.6042 15.7104C21.648 14.7504 21.6582 14.4444 21.6582 12C21.6582 9.5556 21.648 9.2496 21.6042 8.2896C21.5604 7.3314 21.408 6.6768 21.1854 6.1044C20.9595 5.50384 20.6052 4.95979 20.1474 4.5102C19.6979 4.05253 19.1541 3.69831 18.5538 3.4722C17.9814 3.2508 17.3262 3.0978 16.368 3.054C15.4086 3.0108 15.1032 3 12.6582 3ZM12.6582 4.6218C15.0612 4.6218 15.3462 4.6308 16.2954 4.674C17.1726 4.7142 17.649 4.86 17.9664 4.9842C18.3864 5.1468 18.6864 5.3424 19.0014 5.6568C19.3164 5.9718 19.5114 6.2718 19.674 6.6918C19.7976 7.0092 19.944 7.4856 19.9842 8.3628C20.0274 9.312 20.0364 9.597 20.0364 12C20.0364 14.403 20.0274 14.688 19.9842 15.6372C19.944 16.5144 19.7982 16.9908 19.674 17.3082C19.53 17.6991 19.3001 18.0528 19.0014 18.3432C18.7111 18.642 18.3574 18.8718 17.9664 19.0158C17.649 19.1394 17.1726 19.2858 16.2954 19.326C15.3462 19.3692 15.0618 19.3782 12.6582 19.3782C10.2546 19.3782 9.9702 19.3692 9.021 19.326C8.1438 19.2858 7.6674 19.14 7.35 19.0158C6.95908 18.8718 6.60541 18.6419 6.315 18.3432C6.01631 18.0528 5.78648 17.6991 5.6424 17.3082C5.5188 16.9908 5.3724 16.5144 5.3322 15.6372C5.289 14.688 5.28 14.403 5.28 12C5.28 9.597 5.289 9.312 5.3322 8.3628C5.3724 7.4856 5.5182 7.0092 5.6424 6.6918C5.805 6.2718 6.0006 5.9718 6.315 5.6568C6.60537 5.35803 6.95905 5.12819 7.35 4.9842C7.6674 4.8606 8.1438 4.7142 9.021 4.674C9.9702 4.6308 10.2552 4.6218 12.6582 4.6218Z" fill="white"/>
<path fillRule="evenodd" clipRule="evenodd" d="M12.6582 15.0028C12.2639 15.0028 11.8734 14.9251 11.509 14.7742C11.1447 14.6233 10.8136 14.4021 10.5348 14.1232C10.2559 13.8444 10.0347 13.5133 9.88382 13.149C9.7329 12.7846 9.65523 12.3941 9.65523 11.9998C9.65523 11.6054 9.7329 11.2149 9.88382 10.8506C10.0347 10.4862 10.2559 10.1552 10.5348 9.87635C10.8136 9.59749 11.1447 9.37629 11.509 9.22538C11.8734 9.07446 12.2639 8.99679 12.6582 8.99679C13.4547 8.99679 14.2185 9.31318 14.7817 9.87635C15.3448 10.4395 15.6612 11.2033 15.6612 11.9998C15.6612 12.7962 15.3448 13.5601 14.7817 14.1232C14.2185 14.6864 13.4547 15.0028 12.6582 15.0028ZM12.6582 7.37379C11.4313 7.37379 10.2547 7.86117 9.38715 8.72871C8.51961 9.59626 8.03223 10.7729 8.03223 11.9998C8.03223 13.2267 8.51961 14.4033 9.38715 15.2709C10.2547 16.1384 11.4313 16.6258 12.6582 16.6258C13.8851 16.6258 15.0618 16.1384 15.9293 15.2709C16.7968 14.4033 17.2842 13.2267 17.2842 11.9998C17.2842 10.7729 16.7968 9.59626 15.9293 8.72871C15.0618 7.86117 13.8851 7.37379 12.6582 7.37379ZM18.63 7.28979C18.63 7.5798 18.5148 7.85794 18.3097 8.06301C18.1047 8.26808 17.8265 8.38329 17.5365 8.38329C17.2465 8.38329 16.9684 8.26808 16.7633 8.06301C16.5582 7.85794 16.443 7.5798 16.443 7.28979C16.443 6.99977 16.5582 6.72164 16.7633 6.51657C16.9684 6.3115 17.2465 6.19629 17.5365 6.19629C17.8265 6.19629 18.1047 6.3115 18.3097 6.51657C18.5148 6.72164 18.63 6.99977 18.63 7.28979Z" fill="white"/>
</svg>
