<svg width="18" height="16" viewBox="0 0 18 16" fill="none" xmlns="http://www.w3.org/2000/svg">
<path d="M15.6621 2.61137L15.6617 2.61098C15.235 2.19274 14.732 1.86037 14.1799 1.63195L14.1793 1.63168C13.6066 1.39379 12.9924 1.27202 12.3722 1.27345L12.3711 1.27345C11.4997 1.27345 10.6504 1.51203 9.91274 1.96201L9.91272 1.96202C9.73624 2.06968 9.56895 2.18769 9.41067 2.31607L9.0957 2.57155L8.78073 2.31607C8.62245 2.18769 8.45517 2.06968 8.27868 1.96202L8.27867 1.96201C7.54105 1.51203 6.69175 1.27345 5.82031 1.27345C5.19191 1.27345 4.58529 1.3936 4.01212 1.63168L4.01158 1.63191C3.45744 1.86133 2.95853 2.19097 2.52955 2.61113L2.52887 2.6118L2.52887 2.6118C2.10303 3.02728 1.76286 3.52228 1.52764 4.06875L15.6621 2.61137ZM15.6621 2.61137C16.0876 3.02749 16.4278 3.52255 16.6638 4.06886C16.9085 4.63744 17.033 5.23962 17.0312 5.85993V5.86134C17.0312 6.44327 16.9124 7.06053 16.6678 7.70032L16.6673 7.70145C16.4646 8.23543 16.1656 8.79931 15.7781 9.37774C15.1647 10.2922 14.3121 11.259 13.239 12.2498C11.4559 13.8947 9.69097 15.0307 9.6247 15.0732L9.6246 15.0733L9.16269 15.3695C9.16257 15.3696 9.16245 15.3697 9.16233 15.3698C9.12144 15.3956 9.06801 15.3956 9.02712 15.3698C9.027 15.3697 9.02689 15.3696 9.02677 15.3695L8.56485 15.0733L8.5649 15.0732L8.55697 15.0683L8.5569 15.0683C8.55606 15.0678 8.54831 15.0629 8.53174 15.0522C8.51536 15.0417 8.49255 15.0268 8.46371 15.0079C8.40607 14.97 8.32489 14.916 8.2235 14.8469C8.0207 14.7089 7.73761 14.5112 7.40068 14.2631C6.72604 13.7665 5.83948 13.0708 4.95055 12.2499L4.9505 12.2498M15.6621 2.61137L4.9505 12.2498M4.9505 12.2498C3.8774 11.2591 3.02488 10.2924 2.4115 9.37798M4.9505 12.2498L2.4115 9.37798M2.4115 9.37798C2.0246 8.80043 1.72693 8.23602 1.5217 7.70032L2.4115 9.37798ZM1.1582 5.86134C1.1582 5.24005 1.28294 4.63738 1.52762 4.06879L1.5216 7.70007C1.27699 7.06037 1.1582 6.4432 1.1582 5.86134Z" stroke="white"/>
</svg>
