<svg width="25" height="24" viewBox="0 0 25 24" fill="none" xmlns="http://www.w3.org/2000/svg">
<path d="M21.6582 4.32353V19.6765C21.6582 20.0275 21.5188 20.3641 21.2706 20.6123C21.0223 20.8606 20.6857 21 20.3347 21H4.98173C4.63071 21 4.29407 20.8606 4.04586 20.6123C3.79765 20.3641 3.6582 20.0275 3.6582 19.6765V4.32353C3.6582 3.97251 3.79765 3.63586 4.04586 3.38765C4.29407 3.13944 4.63071 3 4.98173 3H20.3347C20.6857 3 21.0223 3.13944 21.2706 3.38765C21.5188 3.63586 21.6582 3.97251 21.6582 4.32353ZM8.95232 9.88235H6.30526V18.3529H8.95232V9.88235ZM9.19056 6.97059C9.19195 6.77036 9.15389 6.57182 9.07856 6.3863C9.00322 6.20078 8.89208 6.03191 8.75148 5.88935C8.61088 5.74678 8.44357 5.6333 8.25912 5.5554C8.07466 5.47749 7.87667 5.43668 7.67644 5.43529H7.62879C7.22161 5.43529 6.8311 5.59705 6.54317 5.88497C6.25525 6.17289 6.0935 6.5634 6.0935 6.97059C6.0935 7.37777 6.25525 7.76828 6.54317 8.05621C6.8311 8.34413 7.22161 8.50588 7.62879 8.50588C7.82903 8.51081 8.02828 8.47623 8.21516 8.40413C8.40203 8.33202 8.57287 8.2238 8.7179 8.08565C8.86294 7.94749 8.97933 7.78212 9.06043 7.59897C9.14153 7.41582 9.18575 7.21848 9.19056 7.01824V6.97059ZM19.0111 13.2071C19.0111 10.6606 17.3911 9.67059 15.7817 9.67059C15.2548 9.6442 14.7301 9.75644 14.2601 9.9961C13.79 10.2358 13.391 10.5945 13.1029 11.0365H13.0288V9.88235H10.5406V18.3529H13.1876V13.8476C13.1494 13.3862 13.2947 12.9283 13.5921 12.5735C13.8895 12.2186 14.3149 11.9954 14.7759 11.9524H14.8764C15.7182 11.9524 16.3429 12.4818 16.3429 13.8159V18.3529H18.99L19.0111 13.2071Z" fill="white"/>
</svg>
