<svg width="16" height="16" viewBox="0 0 16 16" fill="none" xmlns="http://www.w3.org/2000/svg">
<path d="M12.409 10.0777C11.9907 10.0798 11.5782 10.1758 11.2019 10.3586C10.8256 10.5415 10.4951 10.8064 10.2349 11.134L6.1494 8.57986C6.2983 8.09931 6.2983 7.58494 6.1494 7.10438L10.2349 4.55022C10.6496 5.06369 11.2326 5.41382 11.8807 5.53858C12.5288 5.66334 13.2002 5.55469 13.7758 5.23187C14.3515 4.90905 14.7943 4.39289 15.0259 3.77484C15.2574 3.15679 15.2627 2.47673 15.0409 1.85514C14.819 1.23354 14.3843 0.710532 13.8137 0.378755C13.2432 0.046978 12.5736 -0.0721511 11.9237 0.0424706C11.2737 0.157092 10.6853 0.498067 10.2626 1.00499C9.83999 1.51192 9.61041 2.15207 9.61456 2.81206C9.6172 3.06199 9.65482 3.31031 9.72634 3.5498L5.64081 6.10396C5.28012 5.6499 4.78712 5.31929 4.23013 5.15797C3.67314 4.99664 3.07976 5.01258 2.53224 5.20358C1.98471 5.39458 1.51017 5.75118 1.17438 6.22395C0.838599 6.69672 0.658203 7.26224 0.658203 7.84212C0.658203 8.422 0.838599 8.98752 1.17438 9.46029C1.51017 9.93306 1.98471 10.2897 2.53224 10.4807C3.07976 10.6717 3.67314 10.6876 4.23013 10.5263C4.78712 10.365 5.28012 10.0343 5.64081 9.58029L9.72634 12.1344C9.65482 12.3739 9.6172 12.6223 9.61456 12.8722C9.61456 13.4249 9.77845 13.9652 10.0855 14.4247C10.3926 14.8843 10.829 15.2424 11.3396 15.4539C11.8503 15.6655 12.4121 15.7208 12.9542 15.613C13.4963 15.5051 13.9942 15.239 14.385 14.8482C14.7758 14.4574 15.042 13.9594 15.1498 13.4174C15.2576 12.8753 15.2023 12.3134 14.9908 11.8028C14.7793 11.2922 14.4211 10.8557 13.9616 10.5487C13.502 10.2416 12.9617 10.0777 12.409 10.0777ZM12.409 1.13537C12.7407 1.13537 13.0648 1.23371 13.3406 1.41794C13.6163 1.60218 13.8312 1.86404 13.9581 2.17042C14.085 2.47679 14.1182 2.81392 14.0535 3.13916C13.9888 3.46441 13.8291 3.76317 13.5946 3.99766C13.3601 4.23215 13.0614 4.39183 12.7361 4.45653C12.4109 4.52122 12.0738 4.48802 11.7674 4.36112C11.461 4.23421 11.1992 4.01931 11.0149 3.74358C10.8307 3.46785 10.7323 3.14368 10.7323 2.81206C10.7323 2.36737 10.909 1.9409 11.2234 1.62646C11.5379 1.31202 11.9644 1.13537 12.409 1.13537ZM3.4667 9.51881C3.13509 9.51881 2.81092 9.42047 2.53519 9.23624C2.25946 9.052 2.04455 8.79014 1.91765 8.48376C1.79074 8.17739 1.75754 7.84026 1.82223 7.51502C1.88693 7.18977 2.04662 6.89101 2.28111 6.65652C2.51559 6.42204 2.81435 6.26235 3.1396 6.19765C3.46484 6.13296 3.80197 6.16616 4.10834 6.29306C4.41472 6.41997 4.67658 6.63487 4.86082 6.9106C5.04505 7.18633 5.14339 7.5105 5.14339 7.84212C5.14339 8.28681 4.96674 8.71328 4.6523 9.02772C4.33786 9.34216 3.91139 9.51881 3.4667 9.51881ZM12.409 14.5489C12.0774 14.5489 11.7532 14.4505 11.4775 14.2663C11.2018 14.0821 10.9869 13.8202 10.86 13.5138C10.7331 13.2075 10.6999 12.8703 10.7646 12.5451C10.8293 12.2198 10.989 11.9211 11.2234 11.6866C11.4579 11.4521 11.7567 11.2924 12.0819 11.2277C12.4072 11.163 12.7443 11.1962 13.0507 11.3231C13.3571 11.45 13.6189 11.6649 13.8032 11.9407C13.9874 12.2164 14.0857 12.5406 14.0857 12.8722C14.0857 13.3169 13.9091 13.7433 13.5946 14.0578C13.2802 14.3722 12.8537 14.5489 12.409 14.5489Z" fill="white"/>
</svg>
