<svg width="16" height="15" viewBox="0 0 16 15" fill="none" xmlns="http://www.w3.org/2000/svg">
<path d="M8 0C3.8525 0 0.5 3.375 0.5 7.5C0.5 9.48912 1.29018 11.3968 2.6967 12.8033C3.39314 13.4997 4.21993 14.0522 5.12987 14.4291C6.03982 14.806 7.01509 15 8 15C9.98912 15 11.8968 14.2098 13.3033 12.8033C14.7098 11.3968 15.5 9.48912 15.5 7.5C15.5 6.51509 15.306 5.53982 14.9291 4.62987C14.5522 3.71993 13.9997 2.89314 13.3033 2.1967C12.6069 1.50026 11.7801 0.947814 10.8701 0.570904C9.96018 0.193993 8.98491 0 8 0ZM10.625 4.5C10.9234 4.5 11.2095 4.61853 11.4205 4.8295C11.6315 5.04048 11.75 5.32663 11.75 5.625C11.75 5.92337 11.6315 6.20952 11.4205 6.4205C11.2095 6.63147 10.9234 6.75 10.625 6.75C10.3266 6.75 10.0405 6.63147 9.8295 6.4205C9.61853 6.20952 9.5 5.92337 9.5 5.625C9.5 5.32663 9.61853 5.04048 9.8295 4.8295C10.0405 4.61853 10.3266 4.5 10.625 4.5ZM5.375 4.5C5.67337 4.5 5.95952 4.61853 6.1705 4.8295C6.38147 5.04048 6.5 5.32663 6.5 5.625C6.5 5.92337 6.38147 6.20952 6.1705 6.4205C5.95952 6.63147 5.67337 6.75 5.375 6.75C5.07663 6.75 4.79048 6.63147 4.5795 6.4205C4.36853 6.20952 4.25 5.92337 4.25 5.625C4.25 5.32663 4.36853 5.04048 4.5795 4.8295C4.79048 4.61853 5.07663 4.5 5.375 4.5ZM8 11.625C6.2525 11.625 4.7675 10.53 4.1675 9H11.8325C11.225 10.53 9.7475 11.625 8 11.625Z" fill="white"/>
</svg>
