<svg width="25" height="24" viewBox="0 0 25 24" fill="none" xmlns="http://www.w3.org/2000/svg">
<path fill-rule="evenodd" clip-rule="evenodd" d="M22.6582 12C22.6582 17.5228 18.1811 22 12.6582 22C7.13536 22 2.6582 17.5228 2.6582 12C2.6582 6.47715 7.13536 2 12.6582 2C18.1811 2 22.6582 6.47715 22.6582 12ZM13.0165 9.38245C12.0439 9.78701 10.1 10.6243 7.18476 11.8945C6.71138 12.0827 6.4634 12.2669 6.44082 12.4469C6.40267 12.7513 6.78378 12.8711 7.30275 13.0343C7.37334 13.0565 7.44648 13.0795 7.52147 13.1039C8.03205 13.2698 8.71887 13.464 9.07592 13.4717C9.3998 13.4787 9.76129 13.3452 10.1604 13.0711C12.8841 11.2325 14.2902 10.3032 14.3784 10.2832C14.4407 10.269 14.527 10.2512 14.5855 10.3032C14.644 10.3552 14.6382 10.4536 14.632 10.48C14.5943 10.641 13.0983 12.0318 12.3241 12.7515C12.0828 12.9759 11.9116 13.135 11.8766 13.1714C11.7982 13.2528 11.7183 13.3298 11.6415 13.4039C11.1672 13.8611 10.8114 14.204 11.6612 14.764C12.0695 15.0331 12.3963 15.2556 12.7223 15.4776C13.0783 15.7201 13.4334 15.9619 13.8929 16.2631C14.0099 16.3398 14.1217 16.4195 14.2306 16.4971C14.6449 16.7925 15.0171 17.0579 15.477 17.0155C15.7442 16.991 16.0202 16.7397 16.1604 15.9903C16.4917 14.2193 17.1429 10.3821 17.2934 8.80082C17.3066 8.66229 17.29 8.48499 17.2766 8.40716C17.2633 8.32932 17.2355 8.21843 17.1343 8.13634C17.0145 8.03912 16.8295 8.01862 16.7468 8.02008C16.3707 8.0267 15.7936 8.22736 13.0165 9.38245Z" fill="white"/>
</svg>
