<svg width="25" height="24" viewBox="0 0 25 24" fill="none" xmlns="http://www.w3.org/2000/svg">
<path d="M20.6107 7.91974C20.6229 8.09605 20.6229 8.27237 20.6229 8.45031C20.6229 13.8722 16.4953 20.1253 8.94786 20.1253V20.1221C6.71833 20.1253 4.53511 19.4867 2.6582 18.2825C2.9824 18.3215 3.30821 18.341 3.63484 18.3418C5.4825 18.3435 7.27734 17.7235 8.73092 16.5819C6.97508 16.5486 5.43537 15.4038 4.89749 13.7325C5.51256 13.8511 6.14632 13.8267 6.75002 13.6618C4.83574 13.275 3.45853 11.5931 3.45853 9.63983C3.45853 9.62195 3.45853 9.60489 3.45853 9.58783C4.02891 9.90552 4.66755 10.0818 5.32081 10.1013C3.51784 8.89638 2.96208 6.49784 4.05085 4.62256C6.13413 7.18604 9.20787 8.74444 12.5075 8.90938C12.1768 7.48423 12.6285 5.99083 13.6946 4.989C15.3472 3.43548 17.9464 3.51511 19.5 5.16694C20.4189 4.98575 21.2997 4.64856 22.1057 4.1708C21.7994 5.12063 21.1583 5.92746 20.3019 6.44015C21.1152 6.34428 21.9099 6.12652 22.6582 5.7942C22.1073 6.61972 21.4134 7.33879 20.6107 7.91974Z" fill="white"/>
</svg>
