<svg width="13" height="17" viewBox="0 0 13 17" fill="none" xmlns="http://www.w3.org/2000/svg">
<path d="M12.7667 0.919167C12.8335 0.963853 12.8883 1.0243 12.9262 1.09517C12.9641 1.16604 12.984 1.24515 12.984 1.32552V8.66927C12.984 8.76704 12.9547 8.86257 12.8999 8.94355C12.8451 9.02452 12.7673 9.08723 12.6766 9.1236L12.4945 8.66927L12.6766 9.1236L12.6737 9.12458L12.6678 9.12752L12.6453 9.13633C12.5165 9.1875 12.3869 9.23646 12.2565 9.28321C11.998 9.37623 11.6387 9.50156 11.2313 9.62592C10.4323 9.87267 9.39149 10.138 8.5778 10.138C7.74845 10.138 7.06205 9.86385 6.46476 9.62396L6.43734 9.61417C5.81655 9.36448 5.2878 9.15885 4.66113 9.15885C3.97572 9.15885 3.05726 9.38406 2.2749 9.62592C1.92461 9.73509 1.57752 9.85427 1.23405 9.98331V16.013C1.23405 16.1429 1.18247 16.2674 1.09065 16.3592C0.998839 16.451 0.874312 16.5026 0.744466 16.5026C0.614621 16.5026 0.490093 16.451 0.398279 16.3592C0.306464 16.2674 0.254883 16.1429 0.254883 16.013V1.32552C0.254883 1.19568 0.306464 1.07115 0.398279 0.979333C0.490093 0.887518 0.614621 0.835938 0.744466 0.835938C0.874312 0.835938 0.998839 0.887518 1.09065 0.979333C1.18247 1.07115 1.23405 1.19568 1.23405 1.32552V1.60165C1.45534 1.52429 1.71972 1.43519 2.00759 1.34706C2.80659 1.10227 3.84842 0.835938 4.66113 0.835938C5.48363 0.835938 6.15338 1.10717 6.73795 1.34412L6.78005 1.36175C7.38909 1.60752 7.9198 1.8151 8.5778 1.8151C9.26322 1.8151 10.1817 1.5899 10.964 1.34804C11.4099 1.20882 11.8504 1.05335 12.2849 0.881958L12.3035 0.875104L12.3074 0.873146H12.3084L12.7667 0.919167ZM12.0049 2.0315C11.7895 2.10787 11.5349 2.19502 11.2548 2.28119C10.4617 2.52794 9.42184 2.79329 8.5778 2.79329C7.71026 2.79329 7.01897 2.51325 6.42069 2.27042L6.41286 2.26748C5.79892 2.02073 5.28682 1.8151 4.66113 1.8151C4.00607 1.8151 3.08859 2.03933 2.29645 2.28315C1.93916 2.39338 1.5849 2.51321 1.23405 2.6425V8.94148C1.44947 8.8651 1.70405 8.77796 1.98409 8.69179C2.77722 8.44406 3.81709 8.17969 4.66113 8.17969C5.49049 8.17969 6.17688 8.45385 6.77417 8.69375L6.80159 8.70354C7.42238 8.95323 7.95113 9.15885 8.5778 9.15885C9.23188 9.15885 10.1503 8.93462 10.9425 8.69081C11.2998 8.58056 11.654 8.46074 12.0049 8.33146V2.03248V2.0315Z" fill="white"/>
</svg>
