<svg width="18" height="16" viewBox="0 0 18 16" fill="none" xmlns="http://www.w3.org/2000/svg">
<path d="M15.4883 2.61137L15.4879 2.61098C15.0612 2.19274 14.5582 1.86037 14.0061 1.63195L14.0055 1.63168C13.4328 1.39379 12.8185 1.27202 12.1984 1.27345L12.1973 1.27345C11.3258 1.27345 10.4765 1.51203 9.73891 1.96201L9.7389 1.96202C9.56241 2.06968 9.39512 2.18769 9.23685 2.31607L8.92188 2.57155L8.6069 2.31607C8.44863 2.18769 8.28134 2.06968 8.10485 1.96202L8.10484 1.96201C7.36722 1.51203 6.51792 1.27345 5.64648 1.27345C5.01808 1.27345 4.41146 1.3936 3.83829 1.63168L3.83775 1.63191C3.28362 1.86133 2.7847 2.19097 2.35572 2.61113L2.35504 2.6118L2.35504 2.6118C1.9292 3.02728 1.58904 3.52228 1.35381 4.06875L15.4883 2.61137ZM15.4883 2.61137C15.9137 3.02749 16.254 3.52255 16.49 4.06886C16.7347 4.63744 16.8592 5.23962 16.8574 5.85993V5.86134C16.8574 6.44327 16.7386 7.06053 16.4939 7.70032L16.4935 7.70145C16.2908 8.23543 15.9918 8.79931 15.6043 9.37774C14.9909 10.2922 14.1383 11.259 13.0651 12.2498C11.282 13.8947 9.51714 15.0307 9.45087 15.0732L9.45077 15.0733L8.98886 15.3695C8.98874 15.3696 8.98862 15.3697 8.9885 15.3698C8.94762 15.3956 8.89418 15.3956 8.85329 15.3698C8.85318 15.3697 8.85306 15.3696 8.85294 15.3695L8.39102 15.0733L8.39107 15.0732L8.38314 15.0683L8.38307 15.0683C8.38224 15.0678 8.37448 15.0629 8.35791 15.0522C8.34153 15.0417 8.31872 15.0268 8.28989 15.0079C8.23224 14.97 8.15106 14.916 8.04967 14.8469C7.84687 14.7089 7.56378 14.5112 7.22685 14.2631C6.55221 13.7665 5.66565 13.0708 4.77672 12.2499L4.77667 12.2498M15.4883 2.61137L4.77667 12.2498M4.77667 12.2498C3.70357 11.2591 2.85105 10.2924 2.23767 9.37798M4.77667 12.2498L2.23767 9.37798M2.23767 9.37798C1.85077 8.80043 1.5531 8.23602 1.34787 7.70032L2.23767 9.37798ZM0.984375 5.86134C0.984375 5.24005 1.10911 4.63738 1.35379 4.06879L1.34778 7.70007C1.10316 7.06037 0.984375 6.4432 0.984375 5.86134Z" stroke="white"/>
</svg>
