<svg width="16" height="16" viewBox="0 0 16 16" fill="none" xmlns="http://www.w3.org/2000/svg">
<path d="M12.2352 10.0777C11.8169 10.0798 11.4043 10.1758 11.028 10.3586C10.6518 10.5415 10.3213 10.8064 10.0611 11.134L5.97558 8.57986C6.12447 8.09931 6.12447 7.58494 5.97558 7.10438L10.0611 4.55022C10.4758 5.06369 11.0588 5.41382 11.7069 5.53858C12.355 5.66334 13.0263 5.55469 13.602 5.23187C14.1777 4.90905 14.6205 4.39289 14.852 3.77484C15.0836 3.15679 15.0889 2.47673 14.867 1.85514C14.6452 1.23354 14.2105 0.710532 13.6399 0.378755C13.0694 0.046978 12.3998 -0.0721511 11.7498 0.0424706C11.0999 0.157092 10.5114 0.498067 10.0888 1.00499C9.66616 1.51192 9.43658 2.15207 9.44073 2.81206C9.44337 3.06199 9.48099 3.31031 9.55251 3.5498L5.46698 6.10396C5.10629 5.6499 4.61329 5.31929 4.0563 5.15797C3.49931 4.99664 2.90593 5.01258 2.35841 5.20358C1.81089 5.39458 1.33634 5.75118 1.00056 6.22395C0.66477 6.69672 0.484375 7.26224 0.484375 7.84212C0.484375 8.422 0.66477 8.98752 1.00056 9.46029C1.33634 9.93306 1.81089 10.2897 2.35841 10.4807C2.90593 10.6717 3.49931 10.6876 4.0563 10.5263C4.61329 10.365 5.10629 10.0343 5.46698 9.58029L9.55251 12.1344C9.48099 12.3739 9.44337 12.6223 9.44073 12.8722C9.44073 13.4249 9.60462 13.9652 9.91168 14.4247C10.2187 14.8843 10.6552 15.2424 11.1658 15.4539C11.6764 15.6655 12.2383 15.7208 12.7804 15.613C13.3225 15.5051 13.8204 15.239 14.2112 14.8482C14.602 14.4574 14.8682 13.9594 14.976 13.4174C15.0838 12.8753 15.0285 12.3134 14.817 11.8028C14.6055 11.2922 14.2473 10.8557 13.7877 10.5487C13.3282 10.2416 12.7879 10.0777 12.2352 10.0777ZM12.2352 1.13537C12.5668 1.13537 12.891 1.23371 13.1667 1.41794C13.4425 1.60218 13.6574 1.86404 13.7843 2.17042C13.9112 2.47679 13.9444 2.81392 13.8797 3.13916C13.815 3.46441 13.6553 3.76317 13.4208 3.99766C13.1863 4.23215 12.8876 4.39183 12.5623 4.45653C12.2371 4.52122 11.8999 4.48802 11.5936 4.36112C11.2872 4.23421 11.0253 4.01931 10.8411 3.74358C10.6569 3.46785 10.5585 3.14368 10.5585 2.81206C10.5585 2.36737 10.7352 1.9409 11.0496 1.62646C11.3641 1.31202 11.7905 1.13537 12.2352 1.13537ZM3.29288 9.51881C2.96126 9.51881 2.63709 9.42047 2.36136 9.23624C2.08563 9.052 1.87072 8.79014 1.74382 8.48376C1.61691 8.17739 1.58371 7.84026 1.6484 7.51502C1.7131 7.18977 1.87279 6.89101 2.10728 6.65652C2.34177 6.42204 2.64052 6.26235 2.96577 6.19765C3.29102 6.13296 3.62814 6.16616 3.93452 6.29306C4.24089 6.41997 4.50275 6.63487 4.68699 6.9106C4.87123 7.18633 4.96956 7.5105 4.96956 7.84212C4.96956 8.28681 4.79291 8.71328 4.47847 9.02772C4.16403 9.34216 3.73756 9.51881 3.29288 9.51881ZM12.2352 14.5489C11.9036 14.5489 11.5794 14.4505 11.3037 14.2663C11.028 14.0821 10.8131 13.8202 10.6862 13.5138C10.5592 13.2075 10.526 12.8703 10.5907 12.5451C10.6554 12.2198 10.8151 11.9211 11.0496 11.6866C11.2841 11.4521 11.5829 11.2924 11.9081 11.2277C12.2333 11.163 12.5705 11.1962 12.8768 11.3231C13.1832 11.45 13.4451 11.6649 13.6293 11.9407C13.8136 12.2164 13.9119 12.5406 13.9119 12.8722C13.9119 13.3169 13.7352 13.7433 13.4208 14.0578C13.1064 14.3722 12.6799 14.5489 12.2352 14.5489Z" fill="white"/>
</svg>
