<svg width="20" height="20" viewBox="0 0 20 20" fill="none" xmlns="http://www.w3.org/2000/svg">
<path d="M19.206 2.40244V14.3707C19.2042 15.1459 18.9584 15.9009 18.5034 16.5286C18.0484 17.1562 17.4073 17.6247 16.6711 17.8675C15.9349 18.1103 15.1409 18.1151 14.4018 17.8812C13.6627 17.6474 13.016 17.1867 12.5534 16.5647C12.0908 15.9426 11.8359 15.1906 11.8247 14.4155C11.8135 13.6403 12.0467 12.8814 12.4912 12.2462C12.9357 11.6111 13.5688 11.132 14.3009 10.877C15.033 10.6219 15.8268 10.6039 16.5697 10.8253V6.4583C16.5698 6.35473 16.5475 6.25235 16.5041 6.15828C16.4608 6.0642 16.3975 5.98068 16.3187 5.91349C16.2399 5.8463 16.1474 5.79706 16.0476 5.76918C15.9479 5.7413 15.8433 5.73545 15.741 5.75202L8.74466 6.86389C8.57612 6.89002 8.42249 6.97559 8.31155 7.10512C8.20061 7.23466 8.13968 7.39962 8.13978 7.57017V16.1574C8.13896 16.9305 7.89571 17.6839 7.44425 18.3115C6.99279 18.939 6.35588 19.4092 5.62317 19.6558C4.89046 19.9025 4.09886 19.913 3.35981 19.6861C2.62076 19.4592 1.97149 19.0063 1.50339 18.391C1.0353 17.7757 0.771962 17.0291 0.750454 16.2563C0.728946 15.4835 0.950351 14.7234 1.3835 14.0831C1.81665 13.4427 2.43972 12.9543 3.16501 12.6867C3.89029 12.419 4.68125 12.3856 5.42655 12.591V4.03528C5.42595 3.53329 5.6034 3.04736 5.92734 2.66388C6.25128 2.28041 6.70072 2.02423 7.19574 1.94091L16.713 0.304585C17.0188 0.251704 17.3325 0.266291 17.6321 0.347325C17.9317 0.428358 18.21 0.573881 18.4474 0.773709C18.6849 0.973536 18.8758 1.22284 19.0068 1.50418C19.1379 1.78552 19.2058 2.09209 19.206 2.40244Z" fill="url(#paint0_linear_999_7084)"/>
<defs>
<linearGradient id="paint0_linear_999_7084" x1="0.744826" y1="10.0631" x2="19.206" y2="10.0631" gradientUnits="userSpaceOnUse">
<stop stop-color="#FFA68D"/>
<stop offset="1" stop-color="#FD3A84"/>
</linearGradient>
</defs>
</svg>
