<svg width="20" height="21" viewBox="0 0 20 21" fill="none" xmlns="http://www.w3.org/2000/svg">
<path d="M1.32034 1.81516C-0.218803 3.41388 0.0962079 5.11217 0.0962079 10.2715C0.0962079 14.556 -0.65133 18.851 3.261 19.8622C4.48269 20.1764 15.3073 20.1764 16.5274 19.8605C18.1563 19.4402 19.4816 18.119 19.6628 15.8152C19.6881 15.4936 19.6881 5.05504 19.662 4.72697C19.4694 2.27299 17.9588 0.858708 15.9683 0.57226C15.5121 0.506157 15.4207 0.486571 13.0802 0.482491C4.77811 0.486571 2.95823 0.116882 1.32034 1.81516Z" fill="url(#paint0_linear_999_7075)"/>
<path d="M9.88795 3.04409C6.92473 3.04409 4.11086 2.78049 3.03607 5.53887C2.59212 6.67813 2.65659 8.15771 2.65659 10.2763C2.65659 12.1353 2.59701 13.8826 3.03607 15.0129C4.10841 17.7729 6.94514 17.5085 9.88632 17.5085C12.7239 17.5085 15.6495 17.8039 16.7374 15.0129C17.1822 13.8622 17.1169 12.4046 17.1169 10.2763C17.1169 7.45097 17.2727 5.62701 15.9025 4.25761C14.5152 2.87026 12.639 3.04409 9.88469 3.04409H9.88795ZM9.23998 4.34738C15.421 4.33759 16.2078 3.65044 15.7736 13.1962C15.6193 16.5724 13.0487 16.2019 9.88877 16.2019C4.12718 16.2019 3.96151 16.037 3.96151 10.273C3.96151 4.44205 4.41852 4.35065 9.23998 4.34575V4.34738ZM13.7481 5.54785C13.518 5.54785 13.2973 5.63925 13.1346 5.80194C12.972 5.96462 12.8806 6.18528 12.8806 6.41535C12.8806 6.64543 12.972 6.86608 13.1346 7.02877C13.2973 7.19146 13.518 7.28286 13.7481 7.28286C13.9781 7.28286 14.1988 7.19146 14.3615 7.02877C14.5242 6.86608 14.6156 6.64543 14.6156 6.41535C14.6156 6.18528 14.5242 5.96462 14.3615 5.80194C14.1988 5.63925 13.9781 5.54785 13.7481 5.54785ZM9.88795 6.56225C9.40028 6.5623 8.91738 6.65841 8.46685 6.84509C8.01631 7.03176 7.60696 7.30535 7.26215 7.65023C6.56579 8.34675 6.17464 9.29136 6.17475 10.2763C6.17486 11.2612 6.56621 12.2057 7.26273 12.9021C7.95924 13.5984 8.90386 13.9896 9.88877 13.9895C10.8737 13.9894 11.8182 13.598 12.5146 12.9015C13.2109 12.205 13.6021 11.2604 13.602 10.2755C13.6019 9.29055 13.2105 8.34602 12.514 7.64965C11.8175 6.95329 10.8729 6.56214 9.88795 6.56225ZM9.88795 7.86554C13.0748 7.86554 13.0789 12.687 9.88795 12.687C6.70194 12.687 6.69704 7.86554 9.88795 7.86554Z" fill="white"/>
<defs>
<linearGradient id="paint0_linear_999_7075" x1="1.3579" y1="18.8176" x2="19.5611" y2="3.06294" gradientUnits="userSpaceOnUse">
<stop stopColor="#FFDD55"/>
<stop offset="0.5" stopColor="#FF543E"/>
<stop offset="1" stopColor="#C837AB"/>
</linearGradient>
</defs>
</svg>
