<svg width="21" height="20" viewBox="0 0 21 20" fill="none" xmlns="http://www.w3.org/2000/svg">
<path d="M10.7158 19.8496C16.1216 19.8496 20.5039 15.4673 20.5039 10.0615C20.5039 4.65571 16.1216 0.273438 10.7158 0.273438C5.31001 0.273438 0.927734 4.65571 0.927734 10.0615C0.927734 15.4673 5.31001 19.8496 10.7158 19.8496Z" fill="#12C64B"/>
<path d="M14.2516 13.6799C14.1741 13.8124 14.0471 13.9087 13.8986 13.9477C13.7502 13.9867 13.5923 13.9652 13.4597 13.8879C11.9369 12.9981 10.1784 12.8557 8.97048 12.8868C8.18583 12.9069 7.4055 13.0098 6.64247 13.1938C6.50041 13.219 6.35409 13.1902 6.2321 13.1132C6.11011 13.0362 6.02124 12.9164 5.98286 12.7774C5.94447 12.6383 5.95934 12.4899 6.02456 12.3613C6.08977 12.2326 6.20064 12.1328 6.33548 12.0816C7.1761 11.8726 8.03678 11.7548 8.90263 11.7301C9.73126 11.6995 10.5608 11.7595 11.3763 11.9091C12.3153 12.0791 13.2182 12.4087 14.0458 12.8835C14.1119 12.922 14.1698 12.9732 14.216 13.0342C14.2622 13.0951 14.2958 13.1647 14.315 13.2387C14.3341 13.3128 14.3384 13.3899 14.3275 13.4657C14.3166 13.5414 14.2908 13.6142 14.2516 13.6799ZM15.3283 11.4431C15.2679 11.5468 15.1814 11.6328 15.0773 11.6925C14.9733 11.7522 14.8554 11.7836 14.7354 11.7835C14.6137 11.7837 14.4942 11.751 14.3895 11.6889C12.5865 10.6356 10.5043 10.4654 9.07281 10.5099C8.14343 10.5334 7.21915 10.6553 6.31546 10.8736C6.14259 10.9143 5.96068 10.8864 5.80796 10.7958C5.65523 10.7051 5.54359 10.5588 5.4965 10.3876C5.44941 10.2163 5.47053 10.0335 5.55542 9.87753C5.64032 9.72154 5.78238 9.60454 5.95174 9.55111C6.9476 9.30467 7.96719 9.16668 8.99272 9.13957C9.97453 9.10177 10.9575 9.17303 11.9236 9.35201C13.0348 9.55346 14.1032 9.94397 15.0825 10.5066C15.2389 10.5985 15.3526 10.7486 15.3987 10.9241C15.4448 11.0996 15.4194 11.2862 15.3283 11.4431ZM16.722 8.99274C16.6663 9.08829 16.5924 9.17192 16.5043 9.23881C16.4163 9.30571 16.3159 9.35456 16.209 9.38257C16.102 9.41057 15.9906 9.41718 15.8811 9.40201C15.7715 9.38684 15.6661 9.3502 15.5708 9.29417C11.284 6.78931 5.72373 8.27866 5.67145 8.29312C5.56339 8.32735 5.44954 8.3394 5.33671 8.32857C5.22388 8.31773 5.1144 8.28423 5.01483 8.23006C4.91526 8.1759 4.82765 8.10219 4.75726 8.01335C4.68686 7.92451 4.63513 7.82237 4.60516 7.71305C4.57519 7.60374 4.5676 7.4895 4.58285 7.37718C4.59809 7.26486 4.63586 7.15678 4.69388 7.05941C4.7519 6.96204 4.82899 6.87738 4.92052 6.81052C5.01205 6.74366 5.11613 6.69596 5.22654 6.6703C6.44512 6.36996 7.69251 6.20177 8.94712 6.16866C10.151 6.12379 11.3561 6.21107 12.5409 6.42893C13.9035 6.67393 15.2141 7.15018 16.4161 7.83708C16.5124 7.89256 16.5967 7.96656 16.6643 8.0548C16.7319 8.14304 16.7813 8.24378 16.8097 8.35121C16.8382 8.45864 16.845 8.57064 16.83 8.68075C16.8149 8.79086 16.7782 8.89689 16.722 8.99274Z" fill="white"/>
</svg>
