<svg width="19" height="21" viewBox="0 0 19 21" fill="none" xmlns="http://www.w3.org/2000/svg">
<path d="M6.4461 10.4341C4.84792 10.4341 3.55678 11.7252 3.5804 13.3077C3.59614 14.3233 4.15511 15.205 4.97782 15.6971C4.69833 15.268 4.53301 14.7602 4.52513 14.2131C4.50151 12.6306 5.79265 11.3395 7.39083 11.3395C7.70574 11.3395 8.00885 11.3907 8.29227 11.4812V8.31239C7.99704 8.26909 7.69393 8.24547 7.39083 8.24547H7.34753V10.5758C7.06411 10.4853 6.76101 10.4341 6.4461 10.4341ZM13.3545 0.931641H12.5121C12.7483 2.1165 13.4135 3.14783 14.3425 3.84851C13.7324 3.04155 13.3623 2.03383 13.3545 0.931641Z" fill="#F00044"/>
<path d="M18.1726 5.75408C17.8617 5.75408 17.5625 5.72259 17.2673 5.66748V7.93878C16.1966 7.93878 15.1573 7.73015 14.1811 7.3129C13.5513 7.04522 12.9648 6.70275 12.4255 6.28943L12.4412 13.2923C12.4334 14.8668 11.8114 16.343 10.6856 17.457C9.76842 18.3624 8.60718 18.941 7.34753 19.126C7.0523 19.1693 6.7492 19.1929 6.4461 19.1929C5.09985 19.1929 3.81658 18.756 2.77344 17.949C2.89153 18.0908 3.01749 18.2285 3.15527 18.3624C4.28895 19.4803 5.79266 20.0983 7.39477 20.0983C7.69787 20.0983 8.00098 20.0747 8.29621 20.0314C9.55585 19.8464 10.7171 19.2677 11.6343 18.3624C12.7601 17.2484 13.382 15.7722 13.3899 14.1977L13.3309 7.1948C13.8662 7.60813 14.4527 7.95453 15.0865 8.21827C16.0667 8.63159 17.1059 8.84415 18.1726 8.84415" fill="#F00044"/>
<path d="M3.14369 9.98942C4.26556 8.87541 5.75746 8.2574 7.34776 8.24559V7.40714C7.05253 7.36384 6.74943 7.34022 6.44633 7.34022C4.84028 7.34022 3.33263 7.95823 2.19895 9.08404C1.08495 10.1902 0.447254 11.7017 0.45119 13.2724C0.45119 14.8548 1.07708 16.3388 2.20682 17.4607C2.3879 17.6378 2.57291 17.8032 2.76973 17.9528C1.8801 16.8939 1.39593 15.5712 1.39199 14.1777C1.39593 12.6071 2.02969 11.0955 3.14369 9.98942ZM17.2675 5.66725V4.82486H17.2596C16.1653 4.82486 15.1576 4.46271 14.3467 3.84863C15.0513 4.77762 16.0826 5.43894 17.2675 5.66725Z" fill="#08FFF9"/>
<path d="M7.23014 17.0001C7.60409 17.0198 7.96231 16.9686 8.29296 16.8623C9.43452 16.4884 10.2572 15.4256 10.2572 14.1738L10.2612 9.48947V0.931739H12.5128C12.4537 0.636509 12.4222 0.337343 12.4183 0.0263672H9.31643V8.58016L9.31249 13.2645C9.31249 14.5163 8.48978 15.5791 7.34823 15.953C7.01757 16.0633 6.65936 16.1144 6.2854 16.0908C5.8091 16.0633 5.36428 15.9215 4.97852 15.6932C5.46269 16.4412 6.28934 16.9489 7.23014 17.0001Z" fill="#08FFF9"/>
<path d="M7.34736 19.1257C8.60701 18.9407 9.76825 18.362 10.6854 17.4566C11.8112 16.3426 12.4332 14.8665 12.4411 13.2919L12.4253 6.28908C12.9607 6.7024 13.5472 7.04881 14.181 7.31254C15.1611 7.72587 16.2003 7.93843 17.2671 7.93843V5.66713C16.0822 5.43882 15.0509 4.7775 14.3463 3.84851C13.4173 3.14783 12.7481 2.1165 12.5159 0.931641H10.2603V9.48544L10.2564 14.1698C10.2564 15.4215 9.43365 16.4844 8.2921 16.8583C7.96144 16.9685 7.60323 17.0197 7.22927 16.9961C6.28453 16.9449 5.46183 16.4371 4.97765 15.6931C4.15494 15.205 3.59597 14.3193 3.58023 13.3037C3.55661 11.7213 4.84775 10.4302 6.44593 10.4302C6.76084 10.4302 7.06394 10.4813 7.34736 10.5719V8.24153C5.75706 8.25334 4.26516 8.87136 3.14329 9.98536C2.02929 11.0915 1.39159 12.6031 1.39553 14.1698C1.39553 15.5632 1.8797 16.8859 2.77327 17.9448C3.82035 18.7517 5.09968 19.1887 6.44593 19.1887C6.74903 19.1926 7.05213 19.169 7.34736 19.1257Z" fill="black"/>
</svg>
